<svg width="22" height="18" viewBox="0 0 22 18" fill="none" xmlns="http://www.w3.org/2000/svg">
<path d="M8.5 3.22222C8.5 2.63285 8.76339 2.06762 9.23223 1.65087C9.70107 1.23413 10.337 1 11 1C11.663 1 12.2989 1.23413 12.7678 1.65087C13.2366 2.06762 13.5 2.63285 13.5 3.22222C14.9355 3.82559 16.1593 4.76481 17.0401 5.93922C17.9209 7.11364 18.4255 8.47897 18.5 9.88889V13.2222C18.5941 13.913 18.8693 14.5745 19.3035 15.1535C19.7377 15.7324 20.3188 16.2127 21 16.5556H1C1.68117 16.2127 2.26226 15.7324 2.69648 15.1535C3.13071 14.5745 3.40593 13.913 3.5 13.2222V9.88889C3.57445 8.47897 4.07913 7.11364 4.95994 5.93922C5.84075 4.76481 7.06449 3.82559 8.5 3.22222" stroke="white" stroke-width="2" stroke-linecap="round" stroke-linejoin="round"/>
</svg>
